<svg xmlns="http://www.w3.org/2000/svg" version="1.1" xmlns:xlink="http://www.w3.org/1999/xlink" xmlns:svgjs="http://svgjs.dev/svgjs" width="1573" height="919" preserveAspectRatio="none" viewBox="0 0 1573 919"><g mask="url(&quot;#SvgjsMask1842&quot;)" fill="none"><rect width="1573" height="919" x="0" y="0" fill="url(&quot;#SvgjsLinearGradient1843&quot;)"></rect><path d="M1154 828L1153 305" stroke-width="8" stroke="url(&quot;#SvgjsLinearGradient1844&quot;)" stroke-linecap="round" class="Down"></path><path d="M36 124L35 -467" stroke-width="8" stroke="url(&quot;#SvgjsLinearGradient1844&quot;)" stroke-linecap="round" class="Down"></path><path d="M395 909L394 1451" stroke-width="6" stroke="url(&quot;#SvgjsLinearGradient1845&quot;)" stroke-linecap="round" class="Up"></path><path d="M490 589L489 29" stroke-width="6" stroke="url(&quot;#SvgjsLinearGradient1845&quot;)" stroke-linecap="round" class="Up"></path><path d="M217 756L216 1169" stroke-width="6" stroke="url(&quot;#SvgjsLinearGradient1844&quot;)" stroke-linecap="round" class="Down"></path><path d="M1544 583L1543 218" stroke-width="10" stroke="url(&quot;#SvgjsLinearGradient1844&quot;)" stroke-linecap="round" class="Down"></path><path d="M16 519L15 110" stroke-width="6" stroke="url(&quot;#SvgjsLinearGradient1844&quot;)" stroke-linecap="round" class="Down"></path><path d="M1174 560L1173 9" stroke-width="6" stroke="url(&quot;#SvgjsLinearGradient1845&quot;)" stroke-linecap="round" class="Up"></path><path d="M1232 775L1231 1423" stroke-width="6" stroke="url(&quot;#SvgjsLinearGradient1845&quot;)" stroke-linecap="round" class="Up"></path><path d="M942 369L941 -261" stroke-width="6" stroke="url(&quot;#SvgjsLinearGradient1844&quot;)" stroke-linecap="round" class="Down"></path><path d="M657 728L656 1245" stroke-width="6" stroke="url(&quot;#SvgjsLinearGradient1844&quot;)" stroke-linecap="round" class="Down"></path><path d="M488 132L487 -270" stroke-width="10" stroke="url(&quot;#SvgjsLinearGradient1845&quot;)" stroke-linecap="round" class="Up"></path><path d="M495 10L494 -611" stroke-width="6" stroke="url(&quot;#SvgjsLinearGradient1844&quot;)" stroke-linecap="round" class="Down"></path><path d="M800 125L799 -157" stroke-width="10" stroke="url(&quot;#SvgjsLinearGradient1844&quot;)" stroke-linecap="round" class="Down"></path><path d="M1327 5L1326 628" stroke-width="10" stroke="url(&quot;#SvgjsLinearGradient1845&quot;)" stroke-linecap="round" class="Up"></path><path d="M1073 530L1072 166" stroke-width="8" stroke="url(&quot;#SvgjsLinearGradient1844&quot;)" stroke-linecap="round" class="Down"></path><path d="M1388 802L1387 1464" stroke-width="10" stroke="url(&quot;#SvgjsLinearGradient1844&quot;)" stroke-linecap="round" class="Down"></path><path d="M377 362L376 890" stroke-width="8" stroke="url(&quot;#SvgjsLinearGradient1844&quot;)" stroke-linecap="round" class="Down"></path><path d="M1228 771L1227 154" stroke-width="10" stroke="url(&quot;#SvgjsLinearGradient1845&quot;)" stroke-linecap="round" class="Up"></path><path d="M258 184L257 809" stroke-width="6" stroke="url(&quot;#SvgjsLinearGradient1845&quot;)" stroke-linecap="round" class="Up"></path><path d="M639 916L638 386" stroke-width="6" stroke="url(&quot;#SvgjsLinearGradient1845&quot;)" stroke-linecap="round" class="Up"></path><path d="M519 199L518 -463" stroke-width="6" stroke="url(&quot;#SvgjsLinearGradient1844&quot;)" stroke-linecap="round" class="Down"></path><path d="M529 908L528 457" stroke-width="8" stroke="url(&quot;#SvgjsLinearGradient1844&quot;)" stroke-linecap="round" class="Down"></path><path d="M1340 406L1339 40" stroke-width="10" stroke="url(&quot;#SvgjsLinearGradient1845&quot;)" stroke-linecap="round" class="Up"></path><path d="M196 476L195 -105" stroke-width="10" stroke="url(&quot;#SvgjsLinearGradient1845&quot;)" stroke-linecap="round" class="Up"></path><path d="M917 707L916 217" stroke-width="10" stroke="url(&quot;#SvgjsLinearGradient1844&quot;)" stroke-linecap="round" class="Down"></path><path d="M1348 468L1347 -165" stroke-width="10" stroke="url(&quot;#SvgjsLinearGradient1845&quot;)" stroke-linecap="round" class="Up"></path><path d="M447 351L446 -29" stroke-width="6" stroke="url(&quot;#SvgjsLinearGradient1845&quot;)" stroke-linecap="round" class="Up"></path><path d="M1249 398L1248 881" stroke-width="10" stroke="url(&quot;#SvgjsLinearGradient1845&quot;)" stroke-linecap="round" class="Up"></path><path d="M479 738L478 244" stroke-width="8" stroke="url(&quot;#SvgjsLinearGradient1844&quot;)" stroke-linecap="round" class="Down"></path><path d="M611 106L610 342" stroke-width="10" stroke="url(&quot;#SvgjsLinearGradient1845&quot;)" stroke-linecap="round" class="Up"></path><path d="M1315 699L1314 1018" stroke-width="6" stroke="url(&quot;#SvgjsLinearGradient1844&quot;)" stroke-linecap="round" class="Down"></path><path d="M459 858L458 214" stroke-width="10" stroke="url(&quot;#SvgjsLinearGradient1845&quot;)" stroke-linecap="round" class="Up"></path><path d="M613 210L612 848" stroke-width="6" stroke="url(&quot;#SvgjsLinearGradient1845&quot;)" stroke-linecap="round" class="Up"></path><path d="M1391 784L1390 1018" stroke-width="10" stroke="url(&quot;#SvgjsLinearGradient1844&quot;)" stroke-linecap="round" class="Down"></path><path d="M1290 905L1289 658" stroke-width="6" stroke="url(&quot;#SvgjsLinearGradient1845&quot;)" stroke-linecap="round" class="Up"></path><path d="M1036 440L1035 97" stroke-width="6" stroke="url(&quot;#SvgjsLinearGradient1844&quot;)" stroke-linecap="round" class="Down"></path><path d="M563 76L562 542" stroke-width="10" stroke="url(&quot;#SvgjsLinearGradient1845&quot;)" stroke-linecap="round" class="Up"></path><path d="M1512 78L1511 -557" stroke-width="10" stroke="url(&quot;#SvgjsLinearGradient1844&quot;)" stroke-linecap="round" class="Down"></path><path d="M225 397L224 920" stroke-width="6" stroke="url(&quot;#SvgjsLinearGradient1844&quot;)" stroke-linecap="round" class="Down"></path></g><defs><mask id="SvgjsMask1842"><rect width="1573" height="919" fill="#ffffff"></rect></mask><linearGradient x1="89.61%" y1="117.79%" x2="10.39%" y2="-17.79%" gradientUnits="userSpaceOnUse" id="SvgjsLinearGradient1843"><stop stop-color="rgba(14, 42, 71, 1)" offset="0.47"></stop><stop stop-color="rgba(0, 69, 158, 1)" offset="0.8"></stop></linearGradient><linearGradient x1="0%" y1="0%" x2="0%" y2="100%" id="SvgjsLinearGradient1844"><stop stop-color="rgba(141, 179, 220, 0)" offset="0"></stop><stop stop-color="rgba(141, 179, 220, 1)" offset="1"></stop></linearGradient><linearGradient x1="0%" y1="100%" x2="0%" y2="0%" id="SvgjsLinearGradient1845"><stop stop-color="rgba(141, 179, 220, 0)" offset="0"></stop><stop stop-color="rgba(141, 179, 220, 1)" offset="1"></stop></linearGradient></defs></svg>